<?xml version="1.0" standalone="no"?>
<!DOCTYPE svg PUBLIC "-//W3C//DTD SVG 20010904//EN"
 "http://www.w3.org/TR/2001/REC-SVG-20010904/DTD/svg10.dtd">
<svg version="1.0" xmlns="http://www.w3.org/2000/svg"
 width="500.000000pt" height="500.000000pt" viewBox="0 0 500.000000 500.000000"
 preserveAspectRatio="xMidYMid meet">

<g transform="translate(0.000000,500.000000) scale(0.100000,-0.100000)"
fill="#000000" stroke="none">
<path d="M3180 3340 l0 -200 -38 38 c-64 64 -102 77 -222 77 -94 0 -110 -3
-156 -27 -101 -53 -168 -159 -180 -283 -12 -130 28 -247 109 -322 56 -52 87
-68 161 -83 105 -22 205 3 277 68 l49 44 0 -56 0 -56 75 0 75 0 0 500 0 500
-75 0 -75 0 0 -200z m-120 -237 c42 -22 59 -40 84 -83 26 -47 30 -64 30 -125
0 -52 -6 -81 -22 -112 -78 -150 -295 -160 -378 -17 -40 68 -45 164 -11 236 54
119 181 161 297 101z"/>
<path d="M1181 3474 c-263 -56 -425 -306 -370 -566 53 -246 307 -413 559 -368
78 14 190 66 245 113 l39 34 -32 40 c-54 68 -55 68 -106 30 -98 -76 -249 -94
-356 -45 -203 93 -260 355 -113 518 25 28 69 63 97 78 45 24 62 27 151 27 90
0 105 -3 155 -28 30 -16 66 -39 81 -53 14 -13 28 -24 31 -24 3 0 25 25 48 55
l43 56 -23 24 c-35 37 -153 95 -227 110 -83 18 -138 18 -222 -1z"/>
<path d="M1973 3240 c-78 -26 -161 -99 -199 -175 -35 -72 -44 -196 -21 -276
32 -110 105 -188 217 -230 78 -31 213 -30 292 0 80 31 157 104 194 183 25 56
29 74 28 158 0 81 -4 103 -26 151 -36 79 -89 133 -166 171 -58 29 -77 33 -161
35 -75 2 -110 -1 -158 -17z m202 -121 c60 -16 104 -55 132 -116 53 -116 12
-259 -89 -311 -99 -51 -220 -23 -282 66 -26 37 -31 54 -34 118 -3 53 1 88 12
118 39 101 151 155 261 125z"/>
<path d="M3743 3246 c-92 -30 -167 -98 -209 -191 -24 -51 -28 -73 -28 -150 -1
-106 12 -156 57 -222 76 -110 217 -165 367 -144 86 13 163 47 205 91 l29 30
-41 42 -41 41 -32 -26 c-35 -30 -116 -57 -170 -57 -97 0 -187 66 -215 158 l-6
22 270 0 271 0 0 74 c0 148 -58 259 -164 313 -43 23 -66 27 -151 30 -65 2
-115 -2 -142 -11z m223 -132 c46 -22 85 -74 91 -124 l6 -40 -203 0 -202 0 6
32 c25 126 176 192 302 132z"/>
<path d="M2380 2301 c-96 -31 -176 -106 -206 -192 -17 -47 -19 -84 -19 -284 1
-213 2 -234 23 -285 53 -134 202 -214 366 -195 131 14 225 77 275 184 26 56
26 58 26 301 0 244 0 245 -26 300 -32 67 -77 113 -144 148 -44 23 -64 26 -160
29 -60 1 -121 -1 -135 -6z m188 -238 c21 -23 22 -30 22 -234 l0 -211 -29 -29
c-40 -39 -82 -39 -122 1 l-30 30 3 214 c3 192 5 216 22 234 33 38 97 36 134
-5z"/>
<path d="M1740 2282 l-55 -18 0 -94 0 -95 67 -3 68 -3 2 -352 3 -352 119 -3
c89 -2 121 1 128 10 9 15 11 888 2 912 -9 24 -257 22 -334 -2z"/>
<path d="M2960 2281 l-55 -17 0 -94 0 -95 68 -3 67 -3 0 -342 c0 -188 4 -348
8 -355 7 -9 39 -12 128 -10 l119 3 0 465 0 465 -140 2 c-108 1 -153 -3 -195
-16z"/>
</g>
</svg>
